<svg xmlns="http://www.w3.org/2000/svg" viewBox="0 0 200 200" width="200" height="200">
  <circle cx="100" cy="100" r="96" fill="#faf7f5"/>
  <ellipse cx="108" cy="100" rx="80" ry="58" fill="#c9aea0" opacity="0.22"/>
  <ellipse cx="115" cy="95" rx="68" ry="48" fill="#c4a898" opacity="0.18"/>
  <ellipse cx="98" cy="108" rx="60" ry="42" fill="#b89484" opacity="0.14"/>
  <ellipse cx="118" cy="90" rx="54" ry="36" fill="#d4bfb0" opacity="0.20"/>
  <g transform="translate(50,100)" stroke="#5c3828" stroke-width="1.6" fill="none">
    <ellipse rx="28" ry="10" transform="rotate(-15)"/>
    <ellipse rx="26" ry="12" transform="rotate(20)"/>
    <ellipse rx="27" ry="9" transform="rotate(50)"/>
    <ellipse rx="24" ry="13" transform="rotate(80)"/>
    <ellipse rx="26" ry="11" transform="rotate(110)"/>
    <ellipse rx="22" ry="11" transform="rotate(140)"/>
    <ellipse rx="18" ry="8" transform="rotate(5)"/>
    <ellipse rx="15" ry="10" transform="rotate(45)"/>
    <ellipse rx="13" ry="7" transform="rotate(75)"/>
  </g>
  <path d="M 78 100 C 98 78, 127 122, 127 100" stroke="#5c3828" stroke-width="1.6" fill="none" stroke-linecap="round"/>
  <path d="M 127 100 A 26.8 26.8 0 0 1 155 74.4 A 24.4 24.4 0 0 1 178.2 100 A 22 22 0 0 1 155 120.8 A 19.6 19.6 0 0 1 136.6 100 A 17.2 17.2 0 0 1 155 84 A 14.8 14.8 0 0 1 168.6 100 A 12.4 12.4 0 0 1 155 111.2 A 10 10 0 0 1 146.2 100 A 7.6 7.6 0 0 1 155 93.6 A 5.2 5.2 0 0 1 159 100" stroke="#5c3828" stroke-width="1.6" fill="none" stroke-linecap="round"/>
  <circle cx="100" cy="100" r="96" fill="none" stroke="#d4bfb0" stroke-width="0.8"/>
</svg>
