<svg xmlns="http://www.w3.org/2000/svg" viewBox="0 0 320 200" width="320" height="200">
  <ellipse cx="155" cy="100" rx="120" ry="64" fill="#c9aea0" opacity="0.22"/>
  <ellipse cx="165" cy="94" rx="105" ry="54" fill="#c4a898" opacity="0.18"/>
  <ellipse cx="142" cy="108" rx="92" ry="46" fill="#b89484" opacity="0.14"/>
  <ellipse cx="168" cy="88" rx="82" ry="40" fill="#d4bfb0" opacity="0.20"/>
  <ellipse cx="150" cy="104" rx="70" ry="36" fill="#c9aea0" opacity="0.12"/>
  <g transform="translate(65,100)" stroke="#5c3828" stroke-width="1.4" fill="none">
    <ellipse rx="38" ry="13" transform="rotate(-15)"/>
    <ellipse rx="34" ry="16" transform="rotate(20)"/>
    <ellipse rx="36" ry="11" transform="rotate(50)"/>
    <ellipse rx="32" ry="17" transform="rotate(80)"/>
    <ellipse rx="35" ry="14" transform="rotate(110)"/>
    <ellipse rx="30" ry="15" transform="rotate(140)"/>
    <ellipse rx="24" ry="11" transform="rotate(5)"/>
    <ellipse rx="20" ry="13" transform="rotate(45)"/>
    <ellipse rx="17" ry="9" transform="rotate(75)"/>
  </g>
  <path d="M 103 100 C 148 68, 183 132, 183 100" stroke="#5c3828" stroke-width="1.4" fill="none" stroke-linecap="round"/>
  <path d="M 183 100 A 33.5 33.5 0 0 1 218 68.1 A 30.4 30.4 0 0 1 246.8 100 A 27.3 27.3 0 0 1 218 125.7 A 24.2 24.2 0 0 1 195.4 100 A 21.1 21.1 0 0 1 218 80.5 A 18 18 0 0 1 234.4 100 A 14.9 14.9 0 0 1 218 113.3 A 11.8 11.8 0 0 1 207.8 100 A 8.7 8.7 0 0 1 218 92.9 A 5.6 5.6 0 0 1 222 100" stroke="#5c3828" stroke-width="1.4" fill="none" stroke-linecap="round"/>
</svg>
